<svg xmlns="http://www.w3.org/2000/svg" width="24" height="24" viewBox="0 0 24 24" fill="none" stroke="currentColor" stroke-width="2" stroke-linecap="round" stroke-linejoin="round"><path d="M9.5 2A2.5 2.5 0 0 1 12 4.5v0A2.5 2.5 0 0 1 9.5 7h-3A2.5 2.5 0 0 0 4 9.5v0A2.5 2.5 0 0 0 6.5 12h3A2.5 2.5 0 0 1 12 14.5v0A2.5 2.5 0 0 1 9.5 17h-3A2.5 2.5 0 0 0 4 19.5v0A2.5 2.5 0 0 0 6.5 22h11A2.5 2.5 0 0 0 20 19.5v0a2.5 2.5 0 0 0-2.5-2.5h-3A2.5 2.5 0 0 1 12 14.5v0A2.5 2.5 0 0 1 14.5 12h3a2.5 2.5 0 0 0 2.5-2.5v0A2.5 2.5 0 0 0 17.5 7h-3A2.5 2.5 0 0 1 12 4.5v0A2.5 2.5 0 0 1 14.5 2z"></path></svg>
