<svg xmlns="http://www.w3.org/2000/svg" width="24" height="24" viewBox="0 0 24 24" fill="none" stroke="currentColor" stroke-width="2" stroke-linecap="round" stroke-linejoin="round"><path d="M17.7 7.7a2.5 2.5 0 1 0-3.5-3.5"></path><path d="M14.2 11.2a2.5 2.5 0 1 0-3.5-3.5"></path><path d="M11.2 14.2a2.5 2.5 0 1 0-3.5-3.5"></path><path d="M14.2 17.7a2.5 2.5 0 1 0-3.5-3.5"></path><path d="M6.3 7.7a2.5 2.5 0 1 0-3.5-3.5"></path><path d="M9.8 11.2a2.5 2.5 0 1 0-3.5-3.5"></path><path d="M6.8 14.2a2.5 2.5 0 1 0-3.5-3.5"></path><path d="M9.8 17.7a2.5 2.5 0 1 0-3.5-3.5"></path></svg>
